<?xml version="1.0" encoding="utf-8"?>
<!-- Generator: Adobe Illustrator 15.1.0, SVG Export Plug-In . SVG Version: 6.00 Build 0)  -->
<!DOCTYPE svg PUBLIC "-//W3C//DTD SVG 1.1//EN" "http://www.w3.org/Graphics/SVG/1.1/DTD/svg11.dtd">
<svg version="1.1" id="Layer_1" xmlns="http://www.w3.org/2000/svg" xmlns:xlink="http://www.w3.org/1999/xlink" x="0px" y="0px"
	 width="595.28px" height="841.89px" viewBox="0 0 595.28 841.89" enable-background="new 0 0 595.28 841.89" xml:space="preserve">
<g>
	<path fill="#3E89D3" d="M84.249,366.542c0-35.198,28.535-63.733,63.733-63.733c11.109,0,21.55,2.848,30.641,7.842
		c-12.129-9.583-27.438-15.317-44.097-15.317c-39.328,0-71.21,31.88-71.21,71.209s31.882,71.213,71.21,71.213
		c16.658,0,31.968-5.736,44.097-15.32c-9.095,4.994-19.531,7.846-30.641,7.846C112.784,430.281,84.249,401.743,84.249,366.542z"/>
</g>
<g>
	<path fill="#52AF00" d="M156.72,320.874c-5.894,0-11.521,1.129-16.695,3.161c1.966-0.273,3.963-0.427,6.004-0.427
		c23.716,0,42.938,19.224,42.938,42.938c0,23.715-19.223,42.936-42.938,42.936c-2.041,0-4.036-0.153-6.001-0.425
		c5.171,2.033,10.799,3.16,16.692,3.16c25.227,0,45.671-20.446,45.671-45.671C202.391,341.323,181.946,320.874,156.72,320.874z"/>
</g>
<g>
	<path fill="#52AF00" d="M241.238,382.77v-33.612h-5.672v-5.607h34.772v13.503h-5.543v-7.896h-16.79v13.277h14.47v5.607h-14.47
		v14.728h5.736v5.607h-18.176v-5.607H241.238z"/>
	<path fill="#52AF00" d="M274.077,365.754c0-6.51,2.127-11.956,6.381-16.339s9.797-6.574,16.629-6.574
		c6.896,0,12.515,2.191,16.854,6.574s6.51,9.873,6.51,16.468c0,6.725-2.208,12.273-6.622,16.645
		c-4.416,4.372-10.028,6.558-16.839,6.558c-4.34,0-8.331-1.036-11.972-3.11c-3.643-2.073-6.376-4.963-8.202-8.669
		S274.077,369.75,274.077,365.754z M281.457,365.786c0,4.92,1.439,9.045,4.318,12.375c2.879,3.331,6.66,4.995,11.344,4.995
		c4.641,0,8.454-1.703,11.44-5.108c2.986-3.405,4.479-7.471,4.479-12.198c0-4.77-1.521-8.803-4.56-12.101
		c-3.041-3.298-6.859-4.947-11.457-4.947c-4.576,0-8.314,1.623-11.215,4.866C282.907,356.913,281.457,360.952,281.457,365.786z"/>
	<path fill="#52AF00" d="M325.994,388.377v-16.274h5.607v3.964c2.686,4.877,6.198,7.315,10.538,7.315
		c2.213,0,4.082-0.677,5.607-2.03s2.288-3.126,2.288-5.317c0-2.127-0.623-3.658-1.869-4.592s-3.599-1.864-7.058-2.788
		c-4.018-1.074-6.993-2.089-8.927-3.045c-1.934-0.956-3.476-2.32-4.624-4.093c-1.15-1.772-1.725-3.872-1.725-6.3
		c0-3.759,1.251-6.762,3.754-9.007c2.503-2.245,5.646-3.368,9.427-3.368c3.588,0,6.918,1.16,9.99,3.48v-2.997h5.479v13.6h-5.479
		v-3.126c-2.299-3.459-5.468-5.188-9.507-5.188c-2.449,0-4.329,0.564-5.64,1.692s-1.966,2.477-1.966,4.044
		c0,1.204,0.333,2.261,0.999,3.174c0.666,0.914,1.515,1.584,2.546,2.014c1.031,0.43,3.062,1.03,6.092,1.802
		c3.954,1.028,6.822,1.988,8.605,2.88c1.782,0.892,3.318,2.38,4.607,4.465c1.288,2.084,1.933,4.48,1.933,7.188
		c0,3.826-1.349,6.985-4.044,9.478c-2.697,2.493-6.032,3.739-10.007,3.739c-4.082,0-7.756-1.471-11.021-4.415v3.706H325.994z"/>
	<path fill="#52AF00" d="M375.539,388.828l-11.421-39.671h-5.382v-5.607h17.145v5.607h-5.375l8.484,29.326l8.154-29.326h-5.334
		v-5.607h20.593v5.607h-5.269l8.186,29.326l8.323-29.326h-5.343v-5.607h16.5v5.607h-5.285l-11.195,39.671h-6.416l-10.088-35.449
		l-10.021,35.449H375.539z"/>
	<path fill="#52AF00" d="M431.665,382.77v-33.612h-4.834v-5.607h16.436v5.607h-4.834v33.612h4.834v5.607h-16.436v-5.607H431.665z"/>
	<path fill="#52AF00" d="M452.193,382.77v-33.612h-5.607v-5.607h18.144v5.607h-5.769v33.612h5.156v5.607h-17.531v-5.607H452.193z
		 M459.187,364.707l14.373-15.549h-5.124v-5.607h17.563v5.607h-4.77l-13.801,15.549l14.188,18.063h4.802v5.607H468.21v-5.607h4.834
		L459.187,364.707z"/>
	<path fill="#52AF00" d="M493.572,382.77v-33.612h-4.834v-5.607h16.436v5.607h-4.834v33.612h4.834v5.607h-16.436v-5.607H493.572z"/>
</g>
</svg>
