<?xml version="1.0" encoding="UTF-8" standalone="no"?>
<!-- Generator: Adobe Illustrator 15.1.0, SVG Export Plug-In . SVG Version: 6.00 Build 0)  -->

<svg
   xmlns:dc="http://purl.org/dc/elements/1.1/"
   xmlns:cc="http://creativecommons.org/ns#"
   xmlns:rdf="http://www.w3.org/1999/02/22-rdf-syntax-ns#"
   xmlns:svg="http://www.w3.org/2000/svg"
   xmlns="http://www.w3.org/2000/svg"
   xmlns:sodipodi="http://sodipodi.sourceforge.net/DTD/sodipodi-0.dtd"
   xmlns:inkscape="http://www.inkscape.org/namespaces/inkscape"
   version="1.1"
   id="Layer_1"
   x="0px"
   y="0px"
   width="432.65176"
   height="142.422"
   viewBox="0 0 432.65175 142.422"
   enable-background="new 0 0 595.28 841.89"
   xml:space="preserve"
   inkscape:version="0.48.3.1 r9886"
   sodipodi:docname="foswiki-logo.svg"
   inkscape:export-filename="/tmp/foswiki-badge.png"
   inkscape:export-xdpi="15.499811"
   inkscape:export-ydpi="15.499811"><metadata
   id="metadata3002"><rdf:RDF><cc:Work
       rdf:about=""><dc:format>image/svg+xml</dc:format><dc:type
         rdf:resource="http://purl.org/dc/dcmitype/StillImage" /><dc:title /></cc:Work></rdf:RDF></metadata><defs
   id="defs3000" /><sodipodi:namedview
   pagecolor="#ffffff"
   bordercolor="#666666"
   borderopacity="1"
   objecttolerance="10"
   gridtolerance="10"
   guidetolerance="10"
   inkscape:pageopacity="0"
   inkscape:pageshadow="2"
   inkscape:window-width="1920"
   inkscape:window-height="1131"
   id="namedview2998"
   showgrid="false"
   inkscape:zoom="1"
   inkscape:cx="131.62795"
   inkscape:cy="-111.75761"
   inkscape:window-x="-4"
   inkscape:window-y="-3"
   inkscape:window-maximized="1"
   inkscape:current-layer="Layer_1"
   inkscape:showpageshadow="false"
   showborder="false"
   fit-margin-top="0"
   fit-margin-left="0"
   fit-margin-right="0"
   fit-margin-bottom="0" />

<g
   id="g2990"
   inkscape:export-xdpi="31.596235"
   inkscape:export-ydpi="31.596235"
   inkscape:export-filename="/home/micha/pictures/foswiki/text2996.png"
   transform="translate(-67.442296,-295.33449)">
	
</g>

<g
   id="g3910"
   transform="translate(-1.157208,-1.30463)"><g
   transform="translate(-62.158802,-294.02937)"
   inkscape:export-ydpi="31.596235"
   inkscape:export-xdpi="31.596235"
   inkscape:export-filename="/home/micha/pictures/foswiki/text2996.png"
   id="g2986">
	<path
   style="fill:#3e89d3"
   inkscape:connector-curvature="0"
   id="path2988"
   d="m 84.249,366.542 c 0,-35.198 28.535,-63.733 63.733,-63.733 11.109,0 21.55,2.848 30.641,7.842 -12.129,-9.583 -27.438,-15.317 -44.097,-15.317 -39.328,0 -71.21,31.88 -71.21,71.209 0,39.329 31.882,71.213 71.21,71.213 16.658,0 31.968,-5.736 44.097,-15.32 -9.095,4.994 -19.531,7.846 -30.641,7.846 -35.198,-10e-4 -63.733,-28.539 -63.733,-63.74 z" />
</g><path
   style="fill:#52af00"
   inkscape:connector-curvature="0"
   id="path2992"
   d="m 156.72,320.874 c -5.894,0 -11.521,1.129 -16.695,3.161 1.966,-0.273 3.963,-0.427 6.004,-0.427 23.716,0 42.938,19.224 42.938,42.938 0,23.715 -19.223,42.936 -42.938,42.936 -2.041,0 -4.036,-0.153 -6.001,-0.425 5.171,2.033 10.799,3.16 16.692,3.16 25.227,0 45.671,-20.446 45.671,-45.671 0,-25.223 -20.445,-45.672 -45.671,-45.672 z"
   transform="translate(-62.158802,-294.02987)" /><text
   y="95.40625"
   x="164.21521"
   inkscape:export-ydpi="31.596235"
   inkscape:export-xdpi="31.596235"
   sodipodi:linespacing="125%"
   style="font-size:64px;font-style:normal;font-variant:normal;font-weight:bold;font-stretch:normal;text-align:start;line-height:125%;writing-mode:lr-tb;text-anchor:start;fill:#52af00;font-family:Arial;-inkscape-font-specification:Arial Bold"
   id="text2996"
   font-size="66">FOSWIKI</text>

</g>

</svg>