<?xml version="1.0" encoding="utf-8"?>
<!-- Generator: Adobe Illustrator 15.1.0, SVG Export Plug-In . SVG Version: 6.00 Build 0)  -->
<!DOCTYPE svg PUBLIC "-//W3C//DTD SVG 1.1//EN" "http://www.w3.org/Graphics/SVG/1.1/DTD/svg11.dtd">
<svg version="1.1" id="Layer_1" xmlns="http://www.w3.org/2000/svg" xmlns:xlink="http://www.w3.org/1999/xlink" x="0px" y="0px"
	 width="595.28px" height="841.89px" viewBox="0 0 595.28 841.89" enable-background="new 0 0 595.28 841.89" xml:space="preserve">
<g>
	<path fill="#3E89D3" d="M74.249,366.542c0-35.198,28.535-63.733,63.733-63.733c11.109,0,21.55,2.848,30.641,7.842
		c-12.129-9.583-27.438-15.317-44.097-15.317c-39.328,0-71.21,31.88-71.21,71.209s31.882,71.213,71.21,71.213
		c16.658,0,31.968-5.736,44.097-15.32c-9.095,4.994-19.531,7.846-30.641,7.846C102.784,430.281,74.249,401.743,74.249,366.542z"/>
</g>
<g>
	<path fill="#52AF00" d="M146.72,320.874c-5.894,0-11.521,1.129-16.695,3.161c1.966-0.273,3.963-0.427,6.004-0.427
		c23.716,0,42.938,19.224,42.938,42.938c0,23.715-19.223,42.936-42.938,42.936c-2.041,0-4.036-0.153-6.001-0.425
		c5.171,2.033,10.799,3.16,16.692,3.16c25.227,0,45.671-20.446,45.671-45.671C192.391,341.323,171.946,320.874,146.72,320.874z"/>
</g>
<rect x="229.374" y="343.564" fill="none" width="346.118" height="47.31"/>
<text transform="matrix(1 0 0 1 229.374 388.377)"><tspan x="0" y="0" fill="#52AF00" font-family="'Rockwell'" font-size="66" letter-spacing="2">FO</tspan><tspan x="94.612" y="0" fill="#52AF00" font-family="'Rockwell'" font-size="66" letter-spacing="3">S</tspan><tspan x="133.603" y="0" fill="#52AF00" font-family="'Rockwell'" font-size="66" letter-spacing="5">W</tspan><tspan x="204.882" y="0" fill="#52AF00" font-family="'Rockwell'" font-size="66" letter-spacing="3">I</tspan><tspan x="229.5" y="0" fill="#52AF00" font-family="'Rockwell'" font-size="66" letter-spacing="5">KI</tspan></text>
</svg>
