<?xml version="1.0" encoding="UTF-8" standalone="no"?>  
<svg xmlns:svg="http://www.w3.org/2000/svg" xmlns="http://www.w3.org/2000/svg" width="300" height="300" viewBox="0 0 300 300" style="enable-background:new 0 0 300 300"> 
<path id="path2448" d="M 246.555,4 L 49.617,4.001 C 24.422,4.001 4,24.423 4,49.617 L 3.999,136.26 L 159.913,292.173 L 246.555,292.173 C 271.749,292.173 292.171,271.751 292.172,246.557 L 292.172,49.617 C 292.172,24.422 271.749,4 246.555,4 z" style="fill:#ffffff" /> 
<path id="path2450" d="M 246.555,4 L 176.58,4 L 68.808,111.819 L 27.715,268.458 L 185.051,228.062 L 292.172,120.941 L 292.171,49.595 C 292.157,24.411 271.741,4 246.555,4 z" style="fill:#00a228" /> 
<path id="path2452" d="M 99.896,249.924 L 46.568,196.596 L 33.045,248.144 C 30.114,259.316 36.869,266.107 48.056,263.234 L 99.896,249.924 z" style="fill:#ffffff;fill-opacity:1" /> 
<path id="path2454" d="M 169.958,200.232 C 178.316,208.59 191.87,208.59 200.23,200.231 L 292.17,108.289 L 292.17,49.617 C 292.17,49.004 292.148,48.398 292.124,47.791 L 169.958,169.958 C 161.6,178.318 161.6,191.874 169.958,200.232 z M 259.902,5.989 L 133.006,132.885 C 124.613,141.279 124.586,154.86 132.946,163.22 C 141.304,171.578 154.885,171.551 163.279,163.158 L 290.179,36.256 C 287.974,29.048 284.035,22.598 278.845,17.396 L 278.773,17.324 C 273.568,12.132 267.115,8.192 259.902,5.989 z M 126.211,126.211 L 248.377,4.046 C 247.771,4.022 247.165,4 246.555,4 L 187.876,4 L 95.938,95.939 C 87.578,104.299 87.578,117.852 95.938,126.212 C 104.297,134.571 117.852,134.571 126.211,126.211 z" style="fill:#ffffff;fill-opacity:1" /> 
<path id="path2456" d="M 288.172,246.557 C 288.172,269.504 269.503,288.172 246.555,288.174 L 49.617,288.172 C 38.5,288.172 28.049,283.844 20.188,275.984 C 12.327,268.124 8,257.672 8,246.556 L 8,49.618 C 8,26.67 26.669,8.001 49.617,8.001 L 246.555,8.001 C 257.672,8.001 268.122,12.329 275.983,20.189 C 283.842,28.048 288.172,38.501 288.171,49.617 L 288.172,246.557 z M 296.172,49.617 C 296.172,36.363 291.012,23.903 281.641,14.531 C 272.27,5.161 259.809,0 246.555,0 L 49.617,0.001 C 22.258,0.001 -0.001,22.259 0,49.617 L 0,246.556 C -0.001,259.809 5.16,272.269 14.531,281.64 C 23.903,291.012 36.363,296.172 49.617,296.172 L 246.555,296.172 C 273.913,296.172 296.172,273.914 296.172,246.556 L 296.172,49.617 L 296.172,49.617 z" style="fill:#ffffff;fill-opacity:1" /> 
</svg>
