<?xml version="1.0" encoding="UTF-8" standalone="no"?>
<!-- Created with Inkscape (http://www.inkscape.org/) -->
<svg
   xmlns:svg="http://www.w3.org/2000/svg"
   xmlns="http://www.w3.org/2000/svg"
   version="1.0"
   width="36.001472"
   height="14.004038"
   id="svg2">
  <defs
     id="defs5" />
  <path
     d="M 35.997699,13.999941 L 34.994894,13.020969 L 34.9751,0.99486069 L 35.99783,0.0079440893 L 35.997699,13.999941 z "
     style="opacity:1;fill:#803300;fill-rule:evenodd;stroke:none;stroke-width:1px;stroke-linecap:butt;stroke-linejoin:miter;stroke-opacity:1"
     id="path2764" />
  <rect
     width="34.007584"
     height="12.029619"
     x="0.98731136"
     y="0.99499226"
     style="opacity:1;fill:#f60;fill-opacity:1;stroke:none;stroke-width:2;stroke-linecap:round;stroke-linejoin:round;stroke-miterlimit:4;stroke-dasharray:none;stroke-opacity:1"
     id="rect1873" />
  <path
     d="M 0.000263178,0 L 36.001474,0.0040378393 L 34.982912,0.99108607 L 0.99903014,1.0028048 L 0.000263178,0 z "
     style="opacity:1;fill:#fca;fill-opacity:1;fill-rule:evenodd;stroke:none;stroke-width:1px;stroke-linecap:butt;stroke-linejoin:miter;stroke-opacity:1"
     id="path1875" />
  <path
     d="M 0.0040378391,14.000263 L 36.001342,14.004038 L 34.994499,13.01699 L 0.9871798,13.01699 L 0.0040378391,14.000263 z "
     style="opacity:1;fill:#520;fill-opacity:1;fill-rule:evenodd;stroke:none;stroke-width:1px;stroke-linecap:butt;stroke-linejoin:miter;stroke-opacity:1"
     id="path2762" />
  <path
     d="M 0.99512389,13.008723 L 0.000394767,13.999941 L 0,4.6800056e-010 L 0.99108604,0.99095444 L 0.99512389,13.008723 z "
     style="opacity:1;fill:#f95;fill-rule:evenodd;stroke:none;stroke-width:1px;stroke-linecap:butt;stroke-linejoin:miter;stroke-opacity:1"
     id="path3651" />
  <g
     id="g4580">
    <path
       d="M 4.8170128,3.8673983 L 7.7408409,3.8673983 L 9.2642784,6.5099764 L 10.740841,3.8673983 L 13.635372,3.8673983 L 10.963497,8.0275545 L 13.887325,12.457242 L 10.904903,12.457242 L 9.211544,9.6974764 L 7.5123253,12.457242 L 4.5474815,12.457242 L 7.5123253,7.9806795 L 4.8170128,3.8673983 z M 14.707638,3.8673983 L 18.199825,3.8673983 L 19.547482,9.0939608 L 20.889278,3.8673983 L 24.369747,3.8673983 L 24.369747,12.457242 L 22.201778,12.457242 L 22.201778,5.9064608 L 20.520138,12.457242 L 18.557247,12.457242 L 16.881466,5.9064608 L 16.881466,12.457242 L 14.707638,12.457242 L 14.707638,3.8673983 z M 26.057247,3.8673983 L 28.711544,3.8673983 L 28.711544,10.342008 L 32.854122,10.342008 L 32.854122,12.457242 L 26.057247,12.457242 L 26.057247,3.8673983 z "
       style="font-size:12px;font-style:normal;font-variant:normal;font-weight:800;font-stretch:normal;text-align:start;line-height:125%;writing-mode:lr-tb;text-anchor:start;fill:#803300;fill-opacity:1;stroke:none;stroke-width:1px;stroke-linecap:butt;stroke-linejoin:miter;stroke-opacity:1;font-family:Arial Black"
       id="text4574" />
    <path
       d="M 4.2424884,2.9393196 L 7.1663165,2.9393196 L 8.689754,5.5818977 L 10.166317,2.9393196 L 13.060848,2.9393196 L 10.388973,7.0994759 L 13.312801,11.529163 L 10.330379,11.529163 L 8.6370196,8.7693977 L 6.9378009,11.529163 L 3.9729571,11.529163 L 6.9378009,7.0526009 L 4.2424884,2.9393196 z M 14.133113,2.9393196 L 17.625301,2.9393196 L 18.972957,8.1658821 L 20.314754,2.9393196 L 23.795223,2.9393196 L 23.795223,11.529163 L 21.627254,11.529163 L 21.627254,4.9783821 L 19.945613,11.529163 L 17.982723,11.529163 L 16.306942,4.9783821 L 16.306942,11.529163 L 14.133113,11.529163 L 14.133113,2.9393196 z M 25.482723,2.9393196 L 28.13702,2.9393196 L 28.13702,9.413929 L 32.279598,9.413929 L 32.279598,11.529163 L 25.482723,11.529163 L 25.482723,2.9393196 z "
       style="font-size:12px;font-style:normal;font-variant:normal;font-weight:800;font-stretch:normal;text-align:start;line-height:125%;writing-mode:lr-tb;text-anchor:start;fill:white;fill-opacity:1;stroke:none;stroke-width:1px;stroke-linecap:butt;stroke-linejoin:miter;stroke-opacity:1;font-family:Arial Black"
       id="text4570" />
  </g>
</svg>
