<?xml version="1.0" encoding="UTF-8" standalone="no"?>
<svg
   xmlns:dc="http://purl.org/dc/elements/1.1/"
   xmlns:cc="http://creativecommons.org/ns#"
   xmlns:rdf="http://www.w3.org/1999/02/22-rdf-syntax-ns#"
   xmlns:svg="http://www.w3.org/2000/svg"
   xmlns="http://www.w3.org/2000/svg"
   xmlns:sodipodi="http://sodipodi.sourceforge.net/DTD/sodipodi-0.dtd"
   xmlns:inkscape="http://www.inkscape.org/namespaces/inkscape"
   width="20"
   height="40.000099"
   viewBox="0 0 20 40.000099"
   id="svg3124"
   version="1.1"
   inkscape:version="0.48.4 r9939"
   sodipodi:docname="delete.svg">
  <metadata
     id="metadata3134">
    <rdf:RDF>
      <cc:Work
         rdf:about="">
        <dc:format>image/svg+xml</dc:format>
        <dc:type
           rdf:resource="http://purl.org/dc/dcmitype/StillImage" />
      </cc:Work>
    </rdf:RDF>
  </metadata>
  <defs
     id="defs3132" />
  <sodipodi:namedview
     pagecolor="#ffffff"
     bordercolor="#666666"
     borderopacity="1"
     objecttolerance="10"
     gridtolerance="10"
     guidetolerance="10"
     inkscape:pageopacity="0"
     inkscape:pageshadow="2"
     inkscape:window-width="1920"
     inkscape:window-height="1132"
     id="namedview3130"
     showgrid="false"
     fit-margin-top="0"
     fit-margin-left="0"
     fit-margin-right="0"
     fit-margin-bottom="0"
     inkscape:zoom="9.8333333"
     inkscape:cx="-3.0169492"
     inkscape:cy="24.813626"
     inkscape:window-x="-2"
     inkscape:window-y="-3"
     inkscape:window-maximized="1"
     inkscape:current-layer="svg3124" />
  <path
     d="m 10,2.4999995 c -4.1475,0 -7.5,3.3525 -7.5,7.5 C 2.5,14.1475 5.8525,17.5 10,17.5 c 4.1475,0 7.5,-3.3525 7.5,-7.5000005 0,-4.1475 -3.3525,-7.5 -7.5,-7.5 z M 13.75,12.6925 12.6925,13.75 10,11.0575 7.3075,13.75 6.25,12.6925 8.9425,9.9999995 6.25,7.3074995 l 1.0575,-1.0575 2.6925,2.6925 2.6925,-2.6925 1.0575,1.0575 -2.6925,2.6925 L 13.75,12.6925 z"
     id="path3126"
     style="fill:#c4c4c2;fill-opacity:0.90588235"
     inkscape:connector-curvature="0" />
  <path
     inkscape:connector-curvature="0"
     d="m 10,22.500099 c -4.1475,0 -7.5,3.3525 -7.5,7.500001 0,4.1475 3.3525001,7.5 7.5,7.5 4.1475,0 7.5,-3.3525 7.5,-7.5 0,-4.1475 -3.3525,-7.5 -7.5,-7.5 z m 3.75,10.1925 L 12.6925,33.7501 10,31.0576 7.3075001,33.7501 6.2500001,32.692599 8.9425,30.0001 6.2500001,27.3076 7.3075001,26.250099 10,28.942599 l 2.6925,-2.6925 1.0575,1.057501 -2.6925,2.6925 2.6925,2.6925 z"
     id="path3126-7"
     style="fill:#d27777;fill-opacity:1" />
</svg>
