<?xml version="1.0" encoding="UTF-8" standalone="no"?>
<svg
   xmlns:dc="http://purl.org/dc/elements/1.1/"
   xmlns:cc="http://creativecommons.org/ns#"
   xmlns:rdf="http://www.w3.org/1999/02/22-rdf-syntax-ns#"
   xmlns:svg="http://www.w3.org/2000/svg"
   xmlns="http://www.w3.org/2000/svg"
   xmlns:sodipodi="http://sodipodi.sourceforge.net/DTD/sodipodi-0.dtd"
   xmlns:inkscape="http://www.inkscape.org/namespaces/inkscape"
   width="20"
   height="60.000198"
   viewBox="0 0 20.000001 60.000198"
   id="svg3117"
   version="1.1"
   inkscape:version="0.48.4 r9939"
   sodipodi:docname="stars.svg"
   inkscape:export-filename="/home/micha/Pictures/foswiki/stars.png"
   inkscape:export-xdpi="90"
   inkscape:export-ydpi="90">
  <metadata
     id="metadata3129">
    <rdf:RDF>
      <cc:Work
         rdf:about="">
        <dc:format>image/svg+xml</dc:format>
        <dc:type
           rdf:resource="http://purl.org/dc/dcmitype/StillImage" />
        <dc:title></dc:title>
      </cc:Work>
    </rdf:RDF>
  </metadata>
  <defs
     id="defs3127" />
  <sodipodi:namedview
     pagecolor="#ffffff"
     bordercolor="#666666"
     borderopacity="1"
     objecttolerance="10"
     gridtolerance="10"
     guidetolerance="10"
     inkscape:pageopacity="0"
     inkscape:pageshadow="2"
     inkscape:window-width="1920"
     inkscape:window-height="1132"
     id="namedview3125"
     showgrid="false"
     inkscape:snap-global="false"
     inkscape:zoom="10.978095"
     inkscape:cx="15.692404"
     inkscape:cy="22.28996"
     inkscape:window-x="-2"
     inkscape:window-y="-3"
     inkscape:window-maximized="1"
     inkscape:current-layer="svg3117"
     showborder="true"
     inkscape:showpageshadow="true"
     fit-margin-top="0"
     fit-margin-left="0"
     fit-margin-right="0"
     fit-margin-bottom="0"
     showguides="true"
     inkscape:guide-bbox="true" />
  <path
     d="M 10.000004,36.073785 16.180001,40.000101 14.540002,32.6001 20.000001,27.621152 12.810002,26.979047 10.000004,20.0001 7.1900006,26.979047 0,27.621152 5.4600005,32.6001 3.8200004,40.000101 z"
     id="path3121"
     inkscape:connector-curvature="0"
     style="fill:#d27777;fill-opacity:1" />
  <path
     style="fill:#c4c4c2;fill-opacity:0.90588235"
     inkscape:connector-curvature="0"
     d="m 20.000001,7.6210519 -7.19,-0.6526315 L 10,-1.5e-6 7.1900009,6.9789466 0,7.6210519 5.4600007,12.599999 3.8200006,20 10,16.073684 16.180001,20 14.55,12.599999 20.000001,7.6210519 z M 10,14.105264 6.2400008,16.494737 7.2400009,11.989473 3.9200006,8.9578939 8.3,8.557894 10,4.3157878 l 1.709999,4.2526314 4.38,0.4000011 -3.319999,3.0315787 1,4.505263 L 10,14.105263 z"
     id="path3183" />
  <path
     d="m 10.000002,56.073885 6.179999,3.926314 -1.639998,-7.399999 5.459998,-4.978947 -7.19,-0.642106 -2.81,-6.978946 L 7.1900007,46.979147 0,47.621253 l 5.4600006,4.978949 -1.6400001,7.4 z"
     id="path3121-9"
     inkscape:connector-curvature="0"
     style="fill:#f1a700;fill-opacity:1" />
</svg>
