<?xml version="1.0" encoding="utf-8"?>
<!-- Generator: Adobe Illustrator 15.0.0, SVG Export Plug-In . SVG Version: 6.00 Build 0)  -->
<!DOCTYPE svg PUBLIC "-//W3C//DTD SVG 1.1//EN" "http://www.w3.org/Graphics/SVG/1.1/DTD/svg11.dtd">
<svg version="1.1" id="Layer_1" xmlns="http://www.w3.org/2000/svg" xmlns:xlink="http://www.w3.org/1999/xlink" x="0px" y="0px"
	 width="595.28px" height="841.89px" viewBox="0 0 595.28 841.89" enable-background="new 0 0 595.28 841.89" xml:space="preserve">
<g>
	<g>
		<g>
			<path d="M212.5,376.773c0-59.833,48.505-108.34,108.339-108.34c18.883,0,36.63,4.84,52.082,13.331
				c-20.615-16.29-46.64-26.038-74.957-26.038c-66.853,0-121.049,54.193-121.049,121.047c0,66.854,54.196,121.055,121.049,121.055
				c28.317,0,54.342-9.75,74.957-26.043c-15.458,8.49-33.199,13.336-52.082,13.336C261.005,485.121,212.5,436.609,212.5,376.773z"/>
		</g>
		<g>
			<path d="M335.691,299.138c-10.021,0-19.587,1.918-28.382,5.373c3.342-0.465,6.737-0.725,10.207-0.725
				c40.315,0,72.989,32.678,72.989,72.987c0,40.312-32.674,72.985-72.989,72.985c-3.47,0-6.86-0.26-10.202-0.724
				c8.79,3.457,18.356,5.373,28.377,5.373c42.88,0,77.635-34.755,77.635-77.635C413.326,333.897,378.571,299.138,335.691,299.138z"
				/>
		</g>
	</g>
	<g>
		<path d="M202.723,538.208v4.455h-22.801v15.854h16.904v4.455h-16.904v22.535h-5.241v-47.3H202.723z"/>
		<path d="M212.745,543.842c3.23-4.193,7.772-6.289,13.627-6.289c5.852,0,10.394,2.096,13.624,6.289
			c3.233,4.193,4.851,10.198,4.851,18.016c0,7.818-1.617,13.824-4.851,18.018c-3.23,4.193-7.772,6.288-13.624,6.288
			c-5.854,0-10.396-2.095-13.627-6.288c-3.231-4.193-4.848-10.199-4.848-18.018C207.897,554.04,209.514,548.035,212.745,543.842z
			 M216.576,576.73c2.293,3.318,5.559,4.979,9.796,4.979c4.234,0,7.5-1.66,9.793-4.979c2.294-3.32,3.44-8.277,3.44-14.873
			c0-6.594-1.146-11.551-3.44-14.871c-2.293-3.318-5.559-4.979-9.793-4.979c-4.237,0-7.503,1.66-9.796,4.979
			c-2.294,3.32-3.44,8.277-3.44,14.871C213.136,568.453,214.282,573.41,216.576,576.73z"/>
		<path d="M277.601,550.264c-0.61-2.402-1.865-4.379-3.765-5.93s-4.316-2.326-7.239-2.326c-2.751,0-4.904,0.633-6.452,1.9
			c-1.553,1.268-2.35,3.078-2.392,5.438c0,1.137,0.295,2.141,0.883,3.014c0.589,0.873,1.41,1.638,2.459,2.292
			c1.048,0.655,2.15,1.235,3.307,1.736c1.156,0.503,2.741,1.126,4.749,1.868c2.402,0.916,4.4,1.726,5.994,2.424
			c1.595,0.698,3.101,1.572,4.521,2.62s2.557,2.315,3.408,3.8c0.852,1.485,1.277,3.209,1.277,5.176c0,1.834-0.273,3.57-0.819,5.207
			c-0.547,1.639-1.442,3.112-2.688,4.422c-1.245,1.311-2.894,2.35-4.946,3.113c-2.052,0.763-4.542,1.146-7.468,1.146
			c-2.446,0-4.608-0.359-6.484-1.08c-1.88-0.722-3.464-1.671-4.751-2.85c-1.287-1.18-2.37-2.457-3.241-3.833
			c-0.876-1.377-1.683-2.893-2.426-4.553l4.783-1.704c1.091,2.839,2.631,5.143,4.616,6.911c1.988,1.77,4.577,2.654,7.767,2.654
			c3.361,0,5.939-0.786,7.731-2.358c1.788-1.572,2.685-3.624,2.685-6.159c0-1.354-0.317-2.543-0.95-3.57
			c-0.632-1.025-1.519-1.932-2.655-2.718c-1.134-0.786-2.335-1.452-3.603-1.998c-1.265-0.546-2.947-1.19-5.044-1.933
			c-2.315-0.874-4.225-1.648-5.733-2.326c-1.506-0.678-2.913-1.496-4.223-2.457c-1.312-0.961-2.372-2.139-3.179-3.538
			c-0.808-1.396-1.211-3.035-1.211-4.913c0-1.703,0.337-3.297,1.014-4.783c0.677-1.483,1.648-2.784,2.916-3.897
			c1.268-1.114,2.773-1.976,4.521-2.587s3.669-0.918,5.765-0.918c3.758,0,6.986,0.982,9.698,2.949
			c2.706,1.965,4.67,4.869,5.896,8.713L277.601,550.264z"/>
		<path d="M290.114,538.208h4.98l8.775,37.735h0.133l9.173-37.735h4.65l9.435,37.735h0.128l8.652-37.735h4.975l-11.2,47.3h-4.651
			l-9.694-38.26h-0.134l-9.173,38.26h-4.65L290.114,538.208z"/>
		<path d="M358.024,538.208v47.3h-5.241v-47.3H358.024z"/>
		<path d="M377.508,585.508h-5.241v-47.3h5.241v24.567h0.128l19.592-24.567h6.221l-14.675,17.819l16.447,29.48h-5.965
			l-14.085-25.156l-7.663,9.303V585.508z"/>
		<path d="M420.6,538.208v47.3h-5.241v-47.3H420.6z"/>
	</g>
</g>
</svg>
