<?xml version="1.0" encoding="utf-8"?>
<!-- Generator: Adobe Illustrator 15.0.0, SVG Export Plug-In . SVG Version: 6.00 Build 0)  -->
<!DOCTYPE svg PUBLIC "-//W3C//DTD SVG 1.1//EN" "http://www.w3.org/Graphics/SVG/1.1/DTD/svg11.dtd">
<svg version="1.1" id="Layer_1" xmlns="http://www.w3.org/2000/svg" xmlns:xlink="http://www.w3.org/1999/xlink" x="0px" y="0px"
	 width="595.28px" height="841.89px" viewBox="0 0 595.28 841.89" enable-background="new 0 0 595.28 841.89" xml:space="preserve">
<g>
	<g>
		<path d="M293.859,400.258v3.897h-19.942v13.867h14.786v3.897h-14.786v19.712h-4.586v-41.374H293.859z"/>
		<path d="M302.627,405.186c2.826-3.667,6.801-5.501,11.92-5.501s9.092,1.834,11.918,5.501c2.828,3.668,4.244,8.921,4.244,15.758
			c0,6.839-1.416,12.093-4.244,15.761c-2.826,3.667-6.799,5.5-11.918,5.5s-9.094-1.833-11.92-5.5
			c-2.824-3.668-4.24-8.922-4.24-15.761C298.387,414.106,299.803,408.854,302.627,405.186z M305.979,433.953
			c2.006,2.904,4.861,4.355,8.568,4.355c3.705,0,6.561-1.451,8.568-4.355c2.004-2.903,3.006-7.24,3.006-13.009
			c0-5.767-1.002-10.104-3.006-13.007c-2.008-2.903-4.863-4.355-8.568-4.355c-3.707,0-6.562,1.452-8.568,4.355
			c-2.006,2.904-3.008,7.241-3.008,13.007C302.971,426.713,303.973,431.05,305.979,433.953z"/>
		<path d="M359.357,410.802c-0.533-2.101-1.633-3.83-3.293-5.186c-1.662-1.355-3.775-2.035-6.332-2.035
			c-2.406,0-4.289,0.555-5.645,1.663c-1.357,1.108-2.055,2.692-2.092,4.755c0,0.994,0.258,1.874,0.773,2.637
			c0.514,0.764,1.232,1.433,2.148,2.005c0.918,0.574,1.883,1.081,2.895,1.519c1.012,0.439,2.398,0.984,4.154,1.634
			c2.102,0.801,3.848,1.509,5.242,2.12c1.395,0.611,2.713,1.375,3.953,2.292c1.244,0.918,2.238,2.027,2.98,3.324
			c0.746,1.3,1.119,2.807,1.119,4.528c0,1.604-0.238,3.122-0.717,4.554c-0.477,1.434-1.262,2.723-2.35,3.869
			c-1.09,1.146-2.531,2.055-4.328,2.722c-1.795,0.668-3.973,1.003-6.533,1.003c-2.137,0-4.029-0.314-5.67-0.945
			c-1.645-0.631-3.031-1.461-4.156-2.492c-1.125-1.033-2.072-2.15-2.836-3.354c-0.766-1.203-1.471-2.53-2.119-3.982l4.182-1.49
			c0.955,2.484,2.303,4.499,4.039,6.047c1.738,1.547,4.004,2.32,6.793,2.32c2.939,0,5.195-0.688,6.764-2.062
			c1.562-1.375,2.348-3.171,2.348-5.388c0-1.185-0.279-2.225-0.832-3.124c-0.553-0.895-1.326-1.688-2.322-2.377
			c-0.992-0.688-2.043-1.27-3.15-1.747s-2.58-1.04-4.412-1.691c-2.025-0.764-3.697-1.442-5.014-2.035
			c-1.32-0.592-2.549-1.308-3.695-2.149c-1.146-0.84-2.074-1.871-2.781-3.094c-0.705-1.222-1.059-2.655-1.059-4.297
			c0-1.491,0.297-2.885,0.887-4.185c0.592-1.298,1.443-2.436,2.549-3.41c1.111-0.973,2.428-1.729,3.955-2.263
			c1.529-0.535,3.211-0.803,5.043-0.803c3.287,0,6.111,0.859,8.484,2.579c2.367,1.719,4.084,4.26,5.156,7.622L359.357,410.802z"/>
		<path d="M370.305,400.258h4.354l7.68,33.009h0.115l8.021-33.009h4.07l8.252,33.009h0.113l7.564-33.009h4.354l-9.799,41.374h-4.068
			l-8.48-33.466h-0.113l-8.025,33.466h-4.068L370.305,400.258z"/>
		<path d="M429.703,400.258v41.374h-4.584v-41.374H429.703z"/>
		<path d="M446.748,441.632h-4.584v-41.374h4.584v21.489h0.111l17.135-21.489h5.445l-12.838,15.587l14.387,25.787h-5.217
			l-12.32-22.004l-6.703,8.136V441.632z"/>
		<path d="M484.441,400.258v41.374h-4.584v-41.374H484.441z"/>
	</g>
	<g>
		<g>
			<path d="M129.654,420.943c0-31.639,25.648-57.287,57.289-57.287c9.982,0,19.365,2.559,27.539,7.048
				c-10.901-8.613-24.665-13.768-39.638-13.768c-35.349,0-64.006,28.656-64.006,64.007c0,35.349,28.657,64.01,64.006,64.01
				c14.973,0,28.736-5.156,39.638-13.771c-8.174,4.487-17.557,7.053-27.539,7.053C155.303,478.235,129.654,452.583,129.654,420.943z
				"/>
		</g>
		<g>
			<path d="M194.796,379.891c-5.299,0-10.357,1.015-15.007,2.841c1.765-0.246,3.564-0.383,5.398-0.383
				c21.315,0,38.592,17.28,38.592,38.594c0,21.315-17.276,38.592-38.592,38.592c-1.834,0-3.632-0.138-5.396-0.383
				c4.646,1.828,9.705,2.842,15.004,2.842c22.673,0,41.051-18.377,41.051-41.051C235.847,398.271,217.469,379.891,194.796,379.891z"
				/>
		</g>
	</g>
</g>
</svg>
